<?xml version="1.0" standalone="no"?>
<!DOCTYPE svg PUBLIC "-//W3C//DTD SVG 20010904//EN"
 "http://www.w3.org/TR/2001/REC-SVG-20010904/DTD/svg10.dtd">
<svg version="1.0" xmlns="http://www.w3.org/2000/svg"
 width="583.000000pt" height="583.000000pt" viewBox="0 0 583.000000 583.000000"
 preserveAspectRatio="xMidYMid meet">
<metadata>
Created by potrace 1.14, written by Peter Selinger 2001-2017
</metadata>
<g transform="translate(0.000000,583.000000) scale(0.100000,-0.100000)"
fill="#000000" stroke="none">
<path d="M2827 4314 c-2 -2 -30 -6 -64 -8 -176 -14 -418 -100 -581 -207 -41
-27 -76 -49 -78 -49 -17 0 -239 -221 -291 -290 -91 -122 -163 -257 -198 -370
-9 -30 -21 -66 -26 -80 -11 -31 -35 -147 -45 -220 -14 -96 -8 -317 11 -408 82
-398 273 -686 611 -920 123 -85 325 -168 480 -197 49 -9 100 -19 114 -22 77
-16 341 -4 470 22 163 34 393 130 476 200 6 6 25 19 40 30 58 41 140 118 205
191 35 40 109 151 109 163 0 5 4 11 8 13 11 4 67 115 82 163 7 22 16 45 21 50
4 6 10 23 13 38 2 15 7 30 10 35 8 13 46 205 53 269 13 114 7 338 -11 418 -2
11 -5 27 -5 36 -1 14 -65 16 -653 15 l-653 -1 0 -270 0 -270 378 0 c267 0 377
-3 377 -11 0 -24 -44 -143 -73 -199 -32 -58 -143 -181 -203 -222 -69 -47 -204
-104 -284 -119 -80 -15 -246 -20 -330 -10 -84 11 -211 63 -325 134 -53 34
-184 165 -225 226 -38 57 -93 167 -105 211 -4 17 -9 35 -11 40 -3 12 -9 34
-22 92 -5 22 -8 94 -7 160 11 510 443 882 950 819 129 -16 264 -78 386 -175
16 -13 33 -21 37 -17 4 3 91 90 194 194 l188 187 -34 30 c-58 51 -88 75 -92
75 -2 0 -25 15 -51 33 -104 70 -273 149 -368 172 -14 3 -61 14 -110 26 -22 5
-62 12 -90 15 -62 7 -273 13 -278 8z"/>
</g>
</svg>
